/* XPM */
static char * node_logo_xpm[] = {
"245 66 6 1",
" 	c None",
".	c #FFFFFF",
"+	c #8CC84B",
"@	c #8DC84C",
"#	c #89C746",
"$	c #8AC748",
"                                                                                                                           ..                                                                                                                        ",
"                                                                                                                           ....                                                                                                                      ",
"                                                                                                                           ......                                                                                                                    ",
"                                                                                                                           .......                                                                                                                   ",
"                                                                                                                           .........                                                                                                                 ",
"                                                                                                                           ...........                                                                                                               ",
"                                                                                                                           ............                                                                                                              ",
"                                                                                                                           ............                                                                                                              ",
"                                                                                                                           ............                                                                                                              ",
"                                                                                                                           ............                                                                                                              ",
"                                                                                                                           ............                                                                                                              ",
"                                                                                                                           ............                                                                                                              ",
"                                                                                                                           ............                                                                                                              ",
"                                                                                                                           ............                                                                                                              ",
"                                                                                                                           ............                                                                                                              ",
"                                                                                                                           ............                                                                                                              ",
"                                                                                                                           ............                                                                                                              ",
"                                                                                                                           ............                                                                                                              ",
"                                                                                                                           ............                                                                                                              ",
"                                                                                                                           ............                                                                                                              ",
"                                                                                                                           ............                                                                                                              ",
"                                                                                                                           ............                                                                                                              ",
"                                                                                                                           ............                                                                                                              ",
"                                                                                                                           ............                                                                               ++                             ",
"                 ....                                             ++++                                              ..     ............                             ....                                            ++++++                    .. .  .",
"               ........                                         ++++++++                                          ......   ............                           .......                                         +++++++++                      .. .",
"             ............                                     ++++++++++++                                      .......................                         ...........                                     ++++++ ++++++                     ...",
"            ...............                                  ++++++++++++++                                   .........................                        ..............                                 +++++++    ++++++                      ",
"          ..................                               ++++++++++++++++++                                ..........................                      ..................                              ++++++        ++++++                    ",
"        ......................                           ++++++++++++++++++++++                            ............................                    .....................                           ++++++           ++++++                   ",
"      ..........................                        +++++++++++++++++++++++++                        ..............................                  .........................                       ++++++               ++++++                 ",
"     .............................                    ++++++++++++++++++++++++++++                     ................................                 ............................                   +++++++                  ++++++               ",
"   ................................                 ++++++++++++++++++++++++++++++++                  .................................               ................................                ++++++                      ++++++             ",
" ....................................             ++++++++++++++++++++++++++++++++++++              ...................................             ...................................              +++++                         ++++++            ",
" ....................................             ++++++++++++++++++++++++++++++++++++             ....................................            .....................................            ++++                             ++++            ",
" ....................................             ++++++++++++++++++++++++++++++++++++            .....................................            .....................................            +++                               +++            ",
" ....................................             ++++++++++++++++++++++++++++++++++++            .....................................            .....................................            +++         +      ++++++++       +++            ",
" ....................................             ++++++++++++++++++++++++++++++++++++            .....................................            .....................................            +++        +++   ++++++++++++     +++            ",
" ................    ................             ++++++++++++++++++++++++++++++++++++            ..................  .................            .................   .................            +++        +++  ++++++++++++++    +++            ",
" ...............      ...............             ++++++++++++++++++++++++++++++++++++            ................      ...............            ................      ...............            +++        +++  ++++      ++++    +++            ",
" .............          .............             ++++++++++++++++++++++++++++++++++++            ...............        ..............            ..............         ..............            +++        +++  +++        +++    +++            ",
" ............            ............             ++++++++++++++++++++++++++++++++++++            .............            ............            .............    ++@#   ............             +++        +++  +++         +++   +++            ",
" ............            ............             ++++++++++++++++++++++++++++++++++++            .............            ............            .............  #@+++++   ..........              +++        +++  ++++++            +++            ",
" ............            ............             ++++++++++++++++++++++++++++++++++++            .............            ............            .............  +++++++   ........                +++        +++  +++++++++++       +++            ",
" ............            ............             ++++++++++++++++++++++++++++++++++++            .............            ............            .............  +++++++   ......                  +++        +++    ++++++++++++    +++            ",
" ............            ............             ++++++++++++++++++++++++++++++++++++            .............            ............            .............  +++++++   ....                    +++        +++      +++++++++++   +++            ",
" ............            ............             ++++++++++++++++++++++++++++++++++++            .............            ............            .............  @++++++   ...                     +++        +++            +++++   +++            ",
" ............            ............             ++++++++++++++++++++++++++++++++++++            .............            ............            .............    $+++                            +++        +++ +++          +++   +++            ",
" ............            ............             ++++++++++++++++++++++++++++++++++++            .............           .............            ..............                                   +++        +++ ++++         +++   +++            ",
" ............            ............             ++++++++++++++++++++++++++++++++++++            ...............        ..............            ...............                                  +++        +++  ++++       ++++   +++            ",
" ............            ............             ++++++++++++++++++++++++++++++++++++            .................    ................            .................                                +++        +++  ++++++++++++++    +++            ",
" ............            ............             ++++++++++++++++++++++++++++++++++++            .....................................            ...................                              +++        +++   +++++++++++++    +++            ",
" ............            ............             ++++++++++++++++++++++++++++++++++++            .....................................            ....................                             +++        +++     +++++++++      +++            ",
" ............            ............             ++++++++++++++++++++++++++++++++++++            .....................................            ......................                           +++        +++                    +++            ",
" ............            ............             ++++++++++++++++++++++++++++++++++++             ....................................            ........................                         +++++      +++                   ++++            ",
" ...........              ...........             ++++++++++++++++++++++++++++++++++++             ....................................             .........................                        ++++++   ++++                 +++++             ",
" .........                  .........               ++++++++++++++++++++++++++++++++                ..................................                ........................                        ++++++++++++               ++++++              ",
" ........                    ........                 ++++++++++++++++++++++++++++                    ..............................                   .........................                        +++++++++              ++++++                ",
" ......                        ......                  ++++++++++++++++++++++++++                       ..........................                       ........................                         ++++++              ++++++                 ",
" ....                            ....                    ++++++++++++++++++++++                           ......................                           ......................                                           ++++++                   ",
" ..                                ..                      ++++++++++++++++++                              ....................                              ..................                                ++++       ++++++                     ",
"                                                             ++++++++++++++                                  ................                                 ...............                                  ++++++   ++++++                       ",
"                                                              ++++++++++++                                     ............                                     ...........                                      ++++++++++++                        ",
"                                                                ++++++++                                        .........                                         ........                                        +++++++++                          ",
"                                                                  ++++                                            ......                                            ....                                            +++++                            ",
"                                                                                                                    ..                                                                                                                               "};
